<?xml version="1.0" encoding="utf-8"?>
<!-- Generator: Adobe Illustrator 12.0.0, SVG Export Plug-In . SVG Version: 6.00 Build 51448)  -->
<!DOCTYPE svg PUBLIC "-//W3C//DTD SVG 1.1//EN" "http://www.w3.org/Graphics/SVG/1.1/DTD/svg11.dtd" [
	<!ENTITY ns_svg "http://www.w3.org/2000/svg">
	<!ENTITY ns_xlink "http://www.w3.org/1999/xlink">
]>
<svg  version="1.1" id="Layer_1" xmlns="&ns_svg;" xmlns:xlink="&ns_xlink;" width="350.511" height="64.799"
	 viewBox="0 0 350.511 64.799" overflow="visible" enable-background="new 0 0 350.511 64.799" xml:space="preserve">
<g>
	<g>
		<path fill="#403730" d="M32.4,4.555c-15.377,0-27.843,12.467-27.843,27.844c0,15.378,12.466,27.845,27.843,27.845
			c15.379,0,27.844-12.467,27.844-27.845C60.244,17.022,47.779,4.555,32.4,4.555"/>
		<path fill="#805333" d="M32.4,0C14.508,0,0,14.508,0,32.399c0,17.894,14.508,32.4,32.4,32.4c17.894,0,32.401-14.507,32.401-32.4
			C64.802,14.508,50.294,0,32.4,0 M6.361,37.62c0.923-3.441,2.459-5.897,4.818-6.496c-1.928-0.628-3.855-0.485-5.305,0.158
			C6.461,17.135,18.109,5.843,32.4,5.843c14.666,0,26.557,11.892,26.557,26.556c0,11.928-7.862,22.018-18.689,25.371
			c0.006-0.004,0.012-0.004,0.016-0.006c-0.356-1.901-0.666-3.961-0.904-6.095l-10.17,2.044l-0.086-0.022
			c0.029,1.64,0.1,3.334,0.244,5.088C17.876,57.463,8.6,48.8,6.361,37.62"/>
		<path fill="#805333" d="M45.262,24.837c-8.292-2.181-15.613,7.794-16.049,25.724l9.871-1.946
			C38.219,37.558,39.371,25.754,45.262,24.837"/>
		<path fill="#EE9C00" d="M6.25,27.803c-0.199,1.139-0.327,2.3-0.375,3.479c3.42-1.518,9.5-0.262,11.915,7.344
			c1.587-5.909,3.811-11.436,8.512-17.472C26.302,21.154,12.113,25.877,6.25,27.803"/>
		<path fill="#EE9C00" d="M18.383,50.883c-0.186,1.196-0.363,2.435-0.531,3.727c3.408,2.236,7.361,3.711,11.615,4.181
			c-0.143-1.751-0.226-3.441-0.26-5.077L18.383,50.883z"/>
		<path fill="#EE9C00" d="M50.719,13.185c-5.35,1.731-16.485,5.394-18.471,6.065c-5.428,4.602-10.316,11.545-13.363,28.646
			l10.324,2.728h0.002c0.639-27.335,17.259-36.228,28.98-11.859c0.496-2.029,0.766-4.166,0.766-6.349
			C58.957,24.854,55.791,18.021,50.719,13.185"/>
	</g>
	<g>
		<path fill="#403730" d="M92.626,20.664c6.668,0,11.909,5.668,11.945,12.662c-0.036,6.985-5.277,12.657-11.945,12.657
			c-6.741,0-12.019-5.672-12.053-12.657C80.607,26.333,85.885,20.664,92.626,20.664z M92.626,44.237
			c5.493,0,10.126-4.814,10.163-10.911c-0.037-6.17-4.67-10.877-10.163-10.877c-5.672,0-10.306,4.708-10.306,10.877
			C82.32,39.422,86.954,44.237,92.626,44.237z"/>
		<path fill="#403730" d="M111.885,37.531v-0.356v-0.355v-7.453c0-0.464,0.393-0.854,0.854-0.854c0.499,0,0.892,0.391,0.892,0.854
			v2.531c1.498-2.032,3.924-3.386,6.633-3.386c4.708,0,8.451,3.883,8.451,8.663c0,4.741-3.743,8.702-8.451,8.702
			c-2.709,0-5.135-1.356-6.633-3.424v9.984c0,0.463-0.393,0.855-0.892,0.855c-0.462,0-0.854-0.393-0.854-0.855V37.531z
			 M113.631,37.174c0,3.854,3.031,6.955,6.633,6.99c3.711-0.035,6.705-3.137,6.705-6.99c0-3.848-2.994-6.916-6.705-6.916
			c-3.53,0-6.488,2.924-6.633,6.633V37.174z"/>
		<path fill="#403730" d="M134.311,37.282c0-4.848,3.78-8.77,8.487-8.77c4.493,0,8.058,3.566,8.416,8.131v0.034v0.106
			c0,0.459-0.392,0.783-0.856,0.783h-14.334c0.176,3.816,3.171,6.704,6.774,6.704c2.317,0,4.458-1.214,5.634-3.173
			c0.248-0.429,0.785-0.501,1.142-0.287c0.391,0.287,0.536,0.787,0.285,1.213c-1.499,2.389-4.103,3.959-7.061,3.959
			C138.091,45.983,134.311,42.059,134.311,37.282z M136.13,35.89h13.229c-0.571-3.281-3.352-5.667-6.561-5.667
			C139.518,30.224,136.77,32.575,136.13,35.89z"/>
		<path fill="#403730" d="M169.994,35.639c0-2.957-2.391-5.381-5.385-5.381c-2.961,0-5.349,2.424-5.42,5.381v9.486v0.144
			c-0.036,0.142-0.07,0.288-0.18,0.393c-0.141,0.215-0.391,0.321-0.642,0.321h-0.212c-0.25-0.072-0.466-0.249-0.571-0.465
			c-0.036-0.034-0.036-0.069-0.036-0.107c0-0.035-0.035-0.071-0.035-0.071v-0.214v-9.486v-0.283V29.4
			c0-0.464,0.355-0.854,0.854-0.854c0.466,0,0.821,0.391,0.821,0.854v1.677c1.283-1.536,3.244-2.532,5.42-2.532
			c3.923,0,7.096,3.209,7.096,7.093v9.486c0,0.502-0.391,0.857-0.855,0.857c-0.463,0-0.855-0.355-0.855-0.857V35.639z"/>
		<path fill="#403730" d="M183.183,22.767h-7.521c-0.465,0-0.857-0.391-0.857-0.89c0-0.461,0.393-0.856,0.857-0.856h16.757
			c0.465,0,0.856,0.395,0.856,0.856c0,0.5-0.392,0.89-0.856,0.89h-7.523v22.359c0,0.466-0.391,0.857-0.854,0.857
			c-0.463,0-0.858-0.392-0.858-0.857V22.767z"/>
		<path fill="#403730" d="M201.583,45.841c-0.182-0.073-0.289-0.214-0.359-0.393l-6.563-15.62c-0.176-0.429,0.039-0.927,0.43-1.103
			c0.428-0.18,0.963,0.034,1.105,0.459l5.813,13.768l4.029-9.593c0.141-0.322,0.5-0.537,0.818-0.537
			c0.359,0,0.715,0.214,0.857,0.537l4.029,9.593l5.779-13.768c0.176-0.425,0.711-0.64,1.102-0.459
			c0.43,0.176,0.645,0.674,0.463,1.103l-6.523,15.546c-0.07,0.182-0.178,0.322-0.32,0.429c-0.145,0.106-0.287,0.179-0.428,0.179
			h-0.072h-0.105c-0.287-0.034-0.607-0.249-0.678-0.534l-0.037-0.038l-4.066-9.664l-4.027,9.629c0,0-0.037,0.035-0.037,0.073
			c-0.107,0.319-0.463,0.534-0.746,0.534c-0.107,0-0.217-0.034-0.322-0.072C201.652,45.911,201.617,45.876,201.583,45.841z"/>
		<path fill="#403730" d="M225.681,23.661c0-0.465,0.393-0.856,0.855-0.856c0.498,0,0.893,0.391,0.893,0.856v0.818
			c0,0.5-0.395,0.93-0.893,0.93c-0.463,0-0.855-0.43-0.855-0.93V23.661z M225.681,29.366c0-0.498,0.393-0.854,0.855-0.854
			c0.498,0,0.893,0.356,0.893,0.854v15.759c0,0.466-0.395,0.857-0.893,0.857c-0.463,0-0.855-0.392-0.855-0.857V29.366z"/>
		<path fill="#403730" d="M248.013,35.639c0-2.957-2.389-5.381-5.387-5.381c-2.959,0-5.346,2.424-5.418,5.381v9.486v0.144
			c-0.037,0.142-0.072,0.288-0.18,0.393c-0.143,0.215-0.393,0.321-0.641,0.321h-0.215c-0.248-0.072-0.463-0.249-0.57-0.465
			c-0.037-0.034-0.037-0.069-0.037-0.107c0-0.035-0.033-0.071-0.033-0.071v-0.214v-9.486v-0.283V29.4
			c0-0.464,0.354-0.854,0.855-0.854c0.463,0,0.82,0.391,0.82,0.854v1.677c1.283-1.536,3.244-2.532,5.418-2.532
			c3.924,0,7.098,3.209,7.098,7.093v9.486c0,0.502-0.391,0.857-0.857,0.857c-0.459,0-0.854-0.355-0.854-0.857V35.639z"/>
		<path fill="#403730" d="M269.554,20.664c3.064,0,5.883,1.069,8.061,2.747c0.389,0.322,0.459,0.926,0.141,1.249
			c-0.285,0.427-0.857,0.463-1.213,0.176c-1.926-1.496-4.352-2.421-6.988-2.421c-6.242,0-11.234,4.883-11.234,10.981
			c0,5.955,4.992,10.842,11.234,10.842c2.637,0,5.063-0.857,6.918-2.429c0.426-0.283,0.998-0.21,1.248,0.216
			c0.354,0.323,0.283,0.964-0.105,1.248c-2.178,1.678-4.996,2.711-8.061,2.711c-7.17,0-12.982-5.638-12.982-12.588
			C256.572,26.298,262.384,20.703,269.554,20.664z"/>
		<path fill="#403730" d="M284.404,23.661c0-0.465,0.391-0.856,0.854-0.856c0.498,0,0.893,0.391,0.893,0.856v0.818
			c0,0.5-0.395,0.93-0.893,0.93c-0.463,0-0.854-0.43-0.854-0.93V23.661z M284.404,29.366c0-0.498,0.391-0.854,0.854-0.854
			c0.498,0,0.893,0.356,0.893,0.854v15.759c0,0.466-0.395,0.857-0.893,0.857c-0.463,0-0.854-0.392-0.854-0.857V29.366z"/>
		<path fill="#403730" d="M300.14,29.366c0,0.427-0.424,0.857-0.854,0.857h-2.248v12.73c0,0.853,0.857,1.283,1.287,1.283
			c0.424,0,0.889,0.463,0.889,0.889c0,0.432-0.465,0.857-0.889,0.857c-1.752,0-3.068-1.283-3.068-3.029v-12.73h-2.176
			c-0.857,0-0.857-0.431-0.857-0.857c0-0.43,0-0.854,0.857-0.854h2.176V22.02c0-0.429,0.43-0.858,0.854-0.858
			c0.463,0,0.928,0.429,0.928,0.858v6.492h2.248C299.716,28.512,300.14,28.937,300.14,29.366z"/>
		<path fill="#403730" d="M307.111,23.661c0-0.465,0.391-0.856,0.854-0.856c0.498,0,0.893,0.391,0.893,0.856v0.818
			c0,0.5-0.395,0.93-0.893,0.93c-0.463,0-0.854-0.43-0.854-0.93V23.661z M307.111,29.366c0-0.498,0.391-0.854,0.854-0.854
			c0.498,0,0.893,0.356,0.893,0.854v15.759c0,0.466-0.395,0.857-0.893,0.857c-0.463,0-0.854-0.392-0.854-0.857V29.366z"/>
		<path fill="#403730" d="M315.755,37.282c0-4.848,3.779-8.77,8.49-8.77c4.492,0,8.059,3.566,8.414,8.131v0.034v0.106
			c0,0.459-0.395,0.783-0.857,0.783h-14.336c0.182,3.816,3.176,6.704,6.779,6.704c2.316,0,4.455-1.214,5.635-3.173
			c0.248-0.429,0.781-0.501,1.137-0.287c0.395,0.287,0.535,0.787,0.289,1.213c-1.5,2.389-4.104,3.959-7.061,3.959
			C319.535,45.983,315.755,42.059,315.755,37.282z M317.576,35.89h13.23c-0.574-3.281-3.354-5.667-6.561-5.667
			C320.962,30.224,318.218,32.575,317.576,35.89z"/>
		<path fill="#403730" d="M337.601,42.347c0.287-0.358,0.818-0.432,1.215-0.11c1.209,0.894,3.135,2.034,5.346,2.034
			c1.357,0,2.531-0.427,3.316-1.068c0.854-0.571,1.322-1.355,1.322-2.141c-0.039-0.819-0.361-1.391-1.25-2.141
			c-0.75-0.571-1.998-0.996-3.711-1.282l-0.068-0.037c-1.57-0.286-2.961-0.643-3.961-1.354c-1.104-0.644-1.887-1.782-1.887-3.138
			c0-1.389,0.783-2.603,1.887-3.424c1.035-0.71,2.498-1.174,4.283-1.174c2.244,0,3.848,1.03,5.205,1.888
			c0.389,0.284,0.498,0.82,0.248,1.214c-0.248,0.391-0.785,0.498-1.176,0.249c-1.283-0.857-2.57-1.746-4.277-1.746
			c-1.43,0-2.57,0.39-3.318,0.995c-0.715,0.571-1.105,1.283-1.105,1.998c0,0.714,0.32,1.212,1,1.747
			c0.779,0.533,1.959,0.962,3.564,1.213h0.07c1.678,0.252,3.033,0.749,4.242,1.425c1.141,0.749,1.965,2.104,1.965,3.567
			c0,1.463-0.824,2.639-1.998,3.53c-1.211,0.892-2.641,1.391-4.352,1.391c-2.818-0.034-5.029-1.355-6.453-2.497
			C337.351,43.165,337.314,42.701,337.601,42.347z"/>
	</g>
</g>
</svg>
