<?xml version="1.0" encoding="utf-8"?>
<!-- Generator: Adobe Illustrator 16.1.1, SVG Export Plug-In . SVG Version: 6.00 Build 0)  -->
<!DOCTYPE svg PUBLIC "-//W3C//DTD SVG 1.1//EN" "http://www.w3.org/Graphics/SVG/1.1/DTD/svg11.dtd">
<svg version="1.1" id="Layer_1" xmlns="http://www.w3.org/2000/svg" xmlns:xlink="http://www.w3.org/1999/xlink" x="0px" y="0px"
	 width="512px" height="512px" viewBox="0 0 512 512" enable-background="new 0 0 512 512" xml:space="preserve">
<g id="logo_-_blue_1_">
	<path id="inner_5_" fill="#403730" d="M256,36C134.492,36,36,134.494,36,256c0,121.504,98.492,220,220,220s220-98.496,220-220
		C476,134.494,377.508,36,256,36z"/>
	<g id="outer_5_">
		<path fill="#805333" d="M256,0C114.617,0,0,114.615,0,256c0,141.383,114.617,256,256,256s256-114.617,256-256
			C512,114.615,397.383,0,256,0z M50.25,297.229c7.289-27.176,19.438-46.584,38.07-51.314c-15.211-4.959-30.449-3.82-41.918,1.258
			C51.035,135.391,143.078,46.18,256,46.18c115.883,0,209.82,93.939,209.82,209.82c0,94.236-62.125,173.961-147.656,200.453
			c0.039-0.012,0.078-0.023,0.117-0.035c-2.813-15.027-5.258-31.305-7.156-48.16l-80.348,16.148l-0.688-0.18
			c0.246,12.953,0.801,26.352,1.934,40.199C141.242,454.039,67.938,385.588,50.25,297.229z"/>
		<path fill="#805333" d="M357.617,196.234c-65.52-17.238-123.359,61.566-126.813,203.268l78.012-15.381
			C301.969,296.742,311.082,203.49,357.617,196.234z"/>
	</g>
	<g id="bridge_face_5_">
		<path fill="#47B9AE" d="M49.375,219.689c-1.57,8.982-2.586,18.148-2.973,27.484c27.039-11.994,75.078-2.066,94.145,58.021
			c12.551-46.686,30.121-90.355,67.266-138.043C207.813,167.152,95.707,204.467,49.375,219.689z"/>
		<path fill="#47B9AE" d="M145.242,402.049c-1.465,9.461-2.871,19.248-4.203,29.443c26.93,17.68,58.156,29.328,91.793,33.027
			c-1.145-13.832-1.809-27.191-2.074-40.117L145.242,402.049z"/>
		<path fill="#47B9AE" d="M400.742,104.178c-42.285,13.672-130.262,42.611-145.965,47.916
			c-42.867,36.369-81.492,91.227-105.559,226.336L230.777,400h0.012c5.055-216,136.371-286.266,228.98-93.723
			c3.926-16.039,6.051-32.906,6.051-50.154C465.82,196.381,440.813,142.391,400.742,104.178z"/>
	</g>
</g>
</svg>
