<?xml version="1.0" encoding="utf-8"?>
<!-- Generator: Adobe Illustrator 12.0.0, SVG Export Plug-In . SVG Version: 6.00 Build 51448)  -->
<!DOCTYPE svg PUBLIC "-//W3C//DTD SVG 1.1//EN" "http://www.w3.org/Graphics/SVG/1.1/DTD/svg11.dtd" [
	<!ENTITY ns_svg "http://www.w3.org/2000/svg">
	<!ENTITY ns_xlink "http://www.w3.org/1999/xlink">
]>
<svg  version="1.1" id="Layer_1" xmlns="&ns_svg;" xmlns:xlink="&ns_xlink;" width="137.66" height="159.81"
	 viewBox="0 0 137.66 159.81" overflow="visible" enable-background="new 0 0 137.66 159.81" xml:space="preserve">
<g id="horiz">
	<g>
		<path fill="#403730" d="M68.83,9.49c-32.029,0-57.994,25.965-57.994,57.995c0,32.03,25.965,57.994,57.994,57.994
			c32.031,0,57.994-25.964,57.994-57.994C126.824,35.455,100.861,9.49,68.83,9.49"/>
		<path fill="#805333" d="M68.831,0C31.559,0,1.346,30.215,1.346,67.484c0,37.271,30.213,67.485,67.485,67.485
			c37.269,0,67.485-30.215,67.485-67.485C136.316,30.215,106.1,0,68.831,0 M14.592,78.353c1.921-7.165,5.123-12.28,10.036-13.528
			c-4.011-1.306-8.027-1.007-11.05,0.332c1.221-29.466,25.486-52.982,55.253-52.982c30.546,0,55.312,24.763,55.312,55.31
			c0,24.841-16.379,45.858-38.926,52.842c0.01-0.004,0.021-0.007,0.031-0.009c-0.742-3.961-1.387-8.253-1.887-12.697l-21.18,4.258
			L62,111.831c0.065,3.414,0.211,6.947,0.509,10.596C38.578,119.689,19.255,101.646,14.592,78.353"/>
		<path fill="#805333" d="M95.617,51.73c-17.271-4.544-32.519,16.23-33.428,53.583l20.564-4.055
			C80.947,78.224,83.352,53.642,95.617,51.73"/>
		<path fill="#EE9C00" d="M14.361,57.913c-0.413,2.369-0.682,4.784-0.783,7.245c7.127-3.161,19.791-0.546,24.817,15.294
			c3.31-12.306,7.939-23.818,17.731-36.389C56.127,44.063,26.574,53.899,14.361,57.913"/>
		<path fill="#EE9C00" d="M39.633,105.984c-0.385,2.493-0.757,5.073-1.108,7.761c7.101,4.662,15.33,7.732,24.198,8.707
			c-0.302-3.646-0.477-7.168-0.547-10.575L39.633,105.984z"/>
		<path fill="#EE9C00" d="M106.986,27.462C95.84,31.067,72.647,38.695,68.508,40.094c-11.301,9.587-21.482,24.048-27.826,59.665
			l21.5,5.686h0.003c1.333-56.94,35.948-75.463,60.36-24.707c1.035-4.228,1.596-8.674,1.596-13.221
			C124.141,51.768,117.549,37.536,106.986,27.462"/>
	</g>
	<g>
		<path fill="#403730" d="M6.147,143.169c3.401,0,6.073,2.893,6.092,6.457c-0.019,3.564-2.69,6.455-6.092,6.455
			c-3.438,0-6.128-2.891-6.147-6.455C0.02,146.062,2.71,143.169,6.147,143.169z M6.147,155.19c2.801,0,5.164-2.455,5.183-5.564
			c-0.019-3.146-2.382-5.547-5.183-5.547c-2.892,0-5.256,2.4-5.256,5.547C0.892,152.735,3.256,155.19,6.147,155.19z"/>
		<path fill="#403730" d="M15.969,151.772v-0.182v-0.183v-3.8c0-0.237,0.199-0.438,0.436-0.438c0.255,0,0.455,0.2,0.455,0.438v1.289
			c0.764-1.035,2-1.727,3.383-1.727c2.4,0,4.311,1.982,4.311,4.42c0,2.418-1.91,4.436-4.311,4.436c-1.383,0-2.619-0.69-3.383-1.746
			v5.093c0,0.237-0.2,0.437-0.455,0.437c-0.236,0-0.436-0.199-0.436-0.437V151.772z M16.859,151.591
			c0,1.963,1.546,3.545,3.383,3.563c1.891-0.018,3.418-1.6,3.418-3.563c0-1.965-1.527-3.529-3.418-3.529
			c-1.801,0-3.311,1.492-3.383,3.384V151.591z"/>
		<path fill="#403730" d="M27.404,151.646c0-2.474,1.928-4.475,4.329-4.475c2.291,0,4.11,1.818,4.292,4.146v0.018v0.055
			c0,0.236-0.201,0.4-0.438,0.4h-7.311c0.092,1.945,1.619,3.418,3.456,3.418c1.182,0,2.272-0.618,2.873-1.617
			c0.128-0.219,0.399-0.256,0.582-0.146c0.2,0.146,0.272,0.401,0.146,0.619c-0.764,1.218-2.092,2.018-3.601,2.018
			C29.332,156.081,27.404,154.081,27.404,151.646z M28.332,150.935h6.748c-0.292-1.672-1.711-2.891-3.347-2.891
			C30.061,148.044,28.66,149.245,28.332,150.935z"/>
		<path fill="#403730" d="M45.603,150.808c0-1.508-1.218-2.746-2.746-2.746c-1.509,0-2.728,1.238-2.764,2.746v4.838v0.072
			c-0.019,0.072-0.036,0.146-0.091,0.199c-0.074,0.109-0.201,0.164-0.328,0.164h-0.109c-0.127-0.037-0.236-0.127-0.29-0.236
			c-0.019-0.018-0.019-0.035-0.019-0.055c0-0.018-0.018-0.035-0.018-0.035v-0.109v-4.838v-0.146v-3.036
			c0-0.237,0.182-0.438,0.436-0.438c0.236,0,0.419,0.2,0.419,0.438v0.855c0.654-0.783,1.654-1.293,2.764-1.293
			c2.001,0,3.619,1.637,3.619,3.619v4.838c0,0.254-0.2,0.436-0.437,0.436s-0.437-0.182-0.437-0.436V150.808z"/>
		<path fill="#403730" d="M52.329,144.242h-3.837c-0.236,0-0.436-0.2-0.436-0.454c0-0.235,0.199-0.437,0.436-0.437h8.547
			c0.236,0,0.437,0.201,0.437,0.437c0,0.254-0.2,0.454-0.437,0.454h-3.836v11.403c0,0.236-0.2,0.436-0.438,0.436
			c-0.236,0-0.437-0.199-0.437-0.436V144.242z"/>
		<path fill="#403730" d="M61.711,156.009c-0.091-0.037-0.146-0.109-0.182-0.199l-3.346-7.967c-0.092-0.217,0.018-0.472,0.218-0.563
			c0.218-0.092,0.491,0.018,0.563,0.236l2.965,7.02l2.055-4.893c0.072-0.164,0.254-0.271,0.418-0.271
			c0.182,0,0.364,0.107,0.437,0.271l2.056,4.893l2.945-7.02c0.092-0.219,0.363-0.328,0.563-0.236
			c0.218,0.091,0.328,0.346,0.237,0.563l-3.328,7.93c-0.037,0.092-0.091,0.164-0.164,0.219c-0.072,0.053-0.145,0.09-0.219,0.09
			h-0.035H66.84c-0.146-0.018-0.309-0.127-0.346-0.271l-0.019-0.02l-2.073-4.928l-2.055,4.91c0,0-0.018,0.018-0.018,0.037
			c-0.055,0.162-0.236,0.271-0.382,0.271c-0.056,0-0.11-0.018-0.165-0.037C61.748,156.044,61.729,156.026,61.711,156.009z"/>
		<path fill="#403730" d="M74.002,144.698c0-0.236,0.199-0.437,0.437-0.437c0.255,0,0.454,0.2,0.454,0.437v0.418
			c0,0.254-0.199,0.473-0.454,0.473c-0.237,0-0.437-0.219-0.437-0.473V144.698z M74.002,147.608c0-0.256,0.199-0.438,0.437-0.438
			c0.255,0,0.454,0.182,0.454,0.438v8.037c0,0.236-0.199,0.436-0.454,0.436c-0.237,0-0.437-0.199-0.437-0.436V147.608z"/>
		<path fill="#403730" d="M85.391,150.808c0-1.508-1.219-2.746-2.746-2.746c-1.51,0-2.729,1.238-2.765,2.746v4.838v0.072
			c-0.019,0.072-0.036,0.146-0.091,0.199c-0.073,0.109-0.201,0.164-0.328,0.164h-0.108c-0.128-0.037-0.237-0.127-0.291-0.236
			c-0.019-0.018-0.019-0.035-0.019-0.055c0-0.018-0.018-0.035-0.018-0.035v-0.109v-4.838v-0.146v-3.036
			c0-0.237,0.182-0.438,0.436-0.438c0.237,0,0.419,0.2,0.419,0.438v0.855c0.654-0.783,1.655-1.293,2.765-1.293
			c2,0,3.619,1.637,3.619,3.619v4.838c0,0.254-0.201,0.436-0.438,0.436s-0.436-0.182-0.436-0.436V150.808z"/>
		<path fill="#403730" d="M96.375,143.169c1.564,0,3,0.547,4.109,1.402c0.201,0.162,0.236,0.472,0.072,0.637
			c-0.145,0.217-0.436,0.234-0.617,0.09c-0.982-0.764-2.219-1.236-3.564-1.236c-3.182,0-5.729,2.491-5.729,5.6
			c0,3.037,2.547,5.529,5.729,5.529c1.346,0,2.582-0.436,3.529-1.236c0.217-0.146,0.508-0.108,0.635,0.109
			c0.182,0.164,0.146,0.49-0.055,0.637c-1.109,0.854-2.545,1.381-4.109,1.381c-3.654,0-6.619-2.873-6.619-6.42
			C89.756,146.044,92.721,143.188,96.375,143.169z"/>
		<path fill="#403730" d="M103.947,144.698c0-0.236,0.199-0.437,0.438-0.437c0.254,0,0.453,0.2,0.453,0.437v0.418
			c0,0.254-0.199,0.473-0.453,0.473c-0.238,0-0.438-0.219-0.438-0.473V144.698z M103.947,147.608c0-0.256,0.199-0.438,0.438-0.438
			c0.254,0,0.453,0.182,0.453,0.438v8.037c0,0.236-0.199,0.436-0.453,0.436c-0.238,0-0.438-0.199-0.438-0.436V147.608z"/>
		<path fill="#403730" d="M111.975,147.608c0,0.217-0.219,0.436-0.438,0.436h-1.145v6.492c0,0.436,0.436,0.654,0.654,0.654
			s0.455,0.237,0.455,0.455c0,0.219-0.236,0.436-0.455,0.436c-0.891,0-1.564-0.653-1.564-1.545v-6.492h-1.109
			c-0.436,0-0.436-0.219-0.436-0.436c0-0.22,0-0.438,0.436-0.438h1.109v-3.311c0-0.217,0.219-0.437,0.438-0.437
			c0.236,0,0.473,0.22,0.473,0.437v3.311h1.145C111.756,147.171,111.975,147.389,111.975,147.608z"/>
		<path fill="#403730" d="M115.527,144.698c0-0.236,0.199-0.437,0.438-0.437c0.254,0,0.453,0.2,0.453,0.437v0.418
			c0,0.254-0.199,0.473-0.453,0.473c-0.238,0-0.438-0.219-0.438-0.473V144.698z M115.527,147.608c0-0.256,0.199-0.438,0.438-0.438
			c0.254,0,0.453,0.182,0.453,0.438v8.037c0,0.236-0.199,0.436-0.453,0.436c-0.238,0-0.438-0.199-0.438-0.436V147.608z"/>
		<path fill="#403730" d="M119.938,151.646c0-2.474,1.928-4.475,4.328-4.475c2.291,0,4.109,1.818,4.291,4.146v0.018v0.055
			c0,0.236-0.199,0.4-0.436,0.4h-7.311c0.09,1.945,1.617,3.418,3.455,3.418c1.182,0,2.273-0.618,2.873-1.617
			c0.127-0.219,0.4-0.256,0.582-0.146c0.199,0.146,0.273,0.401,0.146,0.619c-0.766,1.218-2.092,2.018-3.602,2.018
			C121.865,156.081,119.938,154.081,119.938,151.646z M120.865,150.935h6.746c-0.291-1.672-1.709-2.891-3.346-2.891
			C122.592,148.044,121.191,149.245,120.865,150.935z"/>
		<path fill="#403730" d="M131.076,154.228c0.146-0.182,0.418-0.219,0.619-0.055c0.619,0.454,1.6,1.035,2.729,1.035
			c0.689,0,1.291-0.217,1.691-0.544c0.436-0.292,0.672-0.691,0.672-1.093c-0.018-0.417-0.182-0.709-0.637-1.09
			c-0.381-0.292-1.018-0.51-1.891-0.654l-0.037-0.02c-0.801-0.145-1.51-0.327-2.018-0.691c-0.564-0.326-0.965-0.908-0.965-1.6
			c0-0.709,0.4-1.327,0.965-1.746c0.527-0.363,1.271-0.6,2.182-0.6c1.146,0,1.965,0.527,2.654,0.964
			c0.201,0.146,0.256,0.419,0.129,0.618c-0.129,0.2-0.4,0.255-0.602,0.127c-0.654-0.436-1.309-0.891-2.182-0.891
			c-0.727,0-1.311,0.2-1.691,0.51c-0.363,0.289-0.564,0.654-0.564,1.018c0,0.364,0.164,0.619,0.51,0.891
			c0.4,0.273,1,0.492,1.818,0.619h0.037c0.854,0.127,1.545,0.382,2.164,0.727c0.582,0.382,1,1.072,1,1.818s-0.418,1.348-1.02,1.801
			c-0.617,0.455-1.344,0.709-2.217,0.709c-1.438-0.018-2.564-0.69-3.293-1.271C130.949,154.645,130.932,154.407,131.076,154.228z"/>
	</g>
</g>
</svg>
